<?xml version="1.0"?>
<svg width="94" height="100" xmlns="http://www.w3.org/2000/svg">
 <g>
  <rect fill="none" id="Faved" height="102" width="94" y="0" x="0"/>
 </g>
 <g>
  <path stroke="null" id="svg_1" d="m91.103996,8.671c0,-1.118999 -0.375999,-2.144 -0.985001,-2.979c-1.159996,-1.902 -3.238998,-3.192 -5.622002,-3.192l-74.889995,0c-2.376999,0 -4.457999,1.287 -5.622999,3.188c-0.606,0.839 -0.984,1.865 -0.984,2.982999c0,0.074 0.021,0.143001 0.021,0.22c0,0.074 -0.021,0.142 -0.021,0.218l0,84.363c0,3.631996 2.547,5.079002 5.667001,3.210999l32.721,-19.638c3.117001,-1.865997 8.214001,-1.865997 11.327,0l32.727993,19.638c3.119003,1.868004 5.662003,0.420998 5.662003,-3.210999l0,-84.363c0,-0.076 -0.017998,-0.145 -0.021996,-0.218c0.002998,-0.077 0.020996,-0.146 0.020996,-0.22zm-29.909996,27.433001l-4.370998,4.249001c-0.987,0.972 -1.609001,2.875 -1.375999,4.244999l1.028,6.001999c0.241997,1.366001 -0.574001,1.958 -1.802002,1.312l-5.393002,-2.834999c-1.226997,-0.644001 -3.227997,-0.644001 -4.453999,0l-5.396,2.834999c-1.224998,0.646 -2.043999,0.054001 -1.801998,-1.312l1.028,-6.001999c0.234997,-1.369999 -0.388,-3.272999 -1.375,-4.244999l-4.370003,-4.249001c-0.987999,-0.966999 -0.678997,-1.921001 0.691002,-2.124001l6.028999,-0.876999c1.367001,-0.198002 2.993999,-1.377001 3.605999,-2.617001l2.700001,-5.464001c0.617001,-1.244999 1.613998,-1.244999 2.229,0l2.699001,5.464001c0.608997,1.24 2.242001,2.418999 3.605,2.617001l6.033001,0.876999c1.369995,0.202 1.677002,1.157001 0.690998,2.124001z" fill="#f7b558"/>
 </g>
</svg>
